# xmcd CD database file
#
# Track frame offsets:
#	150
#	12937
#	34742
#
# Disc length: 775 seconds
#
# Revision: 4
# Processed by: cddbd v1.5.1PL0 Copyright (c) Steve Scherf et al.
# Submitted via: CDex 1.51
#
DISCID=19030503
DTITLE=Dip - Superlovers In The Sun
DYEAR=1997
DGENRE=Rock
TTITLE0=Superlovers In The Sun
TTITLE1=No Man Break
TTITLE2=Chainsaw
EXTD=YEAR: 1997
EXTT0=
EXTT1=
EXTT2=
PLAYORDER=
